# xmcd
#
# Track frame offsets:
#	182
#	18987
#	37655
#	91030
#
# Disc length: 2128 seconds
# Revision: 0
# Processed by: cddbd v1.5.2PL0 Copyright (c) Steve Scherf et al.
# Submitted via: dBpowerAMP V12.0
#
DISCID=1a084e04
DTITLE=De'Lacy - That Look
DYEAR=1996
DGENRE=House
TTITLE0=That Look [Hani's Radio Edit]
TTITLE1=That Look [Deep Dish Radio Edit]
TTITLE2=That Look [Hani's Club Look]
TTITLE3=That Look [Deep Dish Vocal Parts One And Two]
EXTD=
EXTT0=
EXTT1=
EXTT2=
EXTT3=
PLAYORDER=
